<svg width="283" height="264" viewBox="0 0 283 264" fill="none" xmlns="http://www.w3.org/2000/svg">
<ellipse cx="141.261" cy="172.889" rx="141.261" ry="90.2353" fill="#1F9EC2"/>
<rect x="0.11499" y="142.279" width="282.407" height="34.2678" fill="#1F9EC2"/>
<ellipse cx="141.319" cy="135.841" rx="141.261" ry="90.2353" fill="#15BFEF"/>
<path d="M207.87 42.522H205.403V14.7669H229.457V17.234H207.87V42.522Z" fill="#1F9EC2"/>
<path d="M206.636 39.4385C204.933 39.4385 203.553 40.8191 203.553 42.5221C203.553 44.2251 204.933 45.6057 206.636 45.6057C208.339 45.6057 209.72 44.2251 209.72 42.5221C209.72 40.8191 208.339 39.4385 206.636 39.4385Z" fill="#1F9EC2"/>
<g filter="url(#filter0_b_410_9)">
<path d="M227.207 28.0122V4.06004C227.207 1.81755 229.025 7.62939e-06 231.267 7.62939e-06H268.171C270.414 7.62939e-06 272.231 1.81755 272.231 4.06004V28.0122C272.231 30.2547 270.414 32.0723 268.171 32.0723H231.267C229.025 32.0723 227.207 30.2547 227.207 28.0122Z" fill="white" fill-opacity="0.02"/>
<path d="M227.884 28.0122V4.06004C227.884 2.19127 229.398 0.67668 231.267 0.67668H268.171C270.04 0.67668 271.555 2.19127 271.555 4.06004V28.0122C271.555 29.881 270.04 31.3956 268.171 31.3956H231.267C229.398 31.3956 227.884 29.881 227.884 28.0122Z" stroke="white" stroke-opacity="0.1" stroke-width="1.35335"/>
</g>
<path d="M235.327 12.9701H234.431C234.036 12.9701 233.727 12.8368 233.503 12.5701C233.289 12.3035 233.183 11.9408 233.183 11.4821H236.239C236.473 11.4821 236.665 11.5568 236.815 11.7061C236.964 11.8448 237.039 12.0208 237.039 12.2341V21.4661C237.039 21.9035 236.889 22.2395 236.591 22.4741C236.303 22.7088 235.881 22.8261 235.327 22.8261V12.9701ZM243.403 22.8261C242.603 22.8261 241.867 22.6715 241.195 22.3621C240.534 22.0528 240.011 21.6315 239.627 21.0981C239.243 20.5648 239.051 19.9781 239.051 19.3381V14.8261C239.051 14.1861 239.243 13.5995 239.627 13.0661C240.011 12.5328 240.534 12.1115 241.195 11.8021C241.867 11.4928 242.603 11.3381 243.403 11.3381C244.203 11.3381 244.934 11.4928 245.595 11.8021C246.267 12.1115 246.795 12.5328 247.179 13.0661C247.574 13.5995 247.771 14.1861 247.771 14.8261V19.3381C247.771 19.9781 247.574 20.5648 247.179 21.0981C246.795 21.6315 246.267 22.0528 245.595 22.3621C244.934 22.6715 244.203 22.8261 243.403 22.8261ZM243.403 21.3061C244.193 21.3061 244.827 21.1195 245.307 20.7461C245.798 20.3728 246.043 19.8875 246.043 19.2901V14.8741C246.043 14.2768 245.798 13.7915 245.307 13.4181C244.827 13.0448 244.193 12.8581 243.403 12.8581C242.614 12.8581 241.974 13.0448 241.483 13.4181C241.003 13.7915 240.763 14.2768 240.763 14.8741V19.2901C240.763 19.8875 241.003 20.3728 241.483 20.7461C241.974 21.1195 242.614 21.3061 243.403 21.3061ZM253.966 22.8261C253.166 22.8261 252.43 22.6715 251.758 22.3621C251.096 22.0528 250.574 21.6315 250.19 21.0981C249.806 20.5648 249.614 19.9781 249.614 19.3381V14.8261C249.614 14.1861 249.806 13.5995 250.19 13.0661C250.574 12.5328 251.096 12.1115 251.758 11.8021C252.43 11.4928 253.166 11.3381 253.966 11.3381C254.766 11.3381 255.496 11.4928 256.158 11.8021C256.83 12.1115 257.358 12.5328 257.742 13.0661C258.136 13.5995 258.334 14.1861 258.334 14.8261V19.3381C258.334 19.9781 258.136 20.5648 257.742 21.0981C257.358 21.6315 256.83 22.0528 256.158 22.3621C255.496 22.6715 254.766 22.8261 253.966 22.8261ZM253.966 21.3061C254.755 21.3061 255.39 21.1195 255.87 20.7461C256.36 20.3728 256.606 19.8875 256.606 19.2901V14.8741C256.606 14.2768 256.36 13.7915 255.87 13.4181C255.39 13.0448 254.755 12.8581 253.966 12.8581C253.176 12.8581 252.536 13.0448 252.046 13.4181C251.566 13.7915 251.326 14.2768 251.326 14.8741V19.2901C251.326 19.8875 251.566 20.3728 252.046 20.7461C252.536 21.1195 253.176 21.3061 253.966 21.3061ZM268.32 11.5141C268.416 11.3115 268.555 11.1568 268.736 11.0501C268.928 10.9435 269.136 10.8901 269.36 10.8901C269.67 10.8901 269.974 10.9915 270.272 11.1941L264.576 22.6341C264.47 22.8368 264.326 22.9915 264.144 23.0981C263.963 23.2048 263.766 23.2581 263.552 23.2581C263.222 23.2581 262.912 23.1515 262.624 22.9381L268.32 11.5141ZM262.624 17.9461C262.134 17.9461 261.68 17.8501 261.264 17.6581C260.859 17.4555 260.534 17.1888 260.288 16.8581C260.054 16.5275 259.936 16.1648 259.936 15.7701V13.5141C259.936 13.1195 260.054 12.7568 260.288 12.4261C260.534 12.0848 260.859 11.8181 261.264 11.6261C261.68 11.4341 262.134 11.3381 262.624 11.3381C263.115 11.3381 263.563 11.4341 263.968 11.6261C264.384 11.8181 264.71 12.0795 264.944 12.4101C265.179 12.7408 265.296 13.1088 265.296 13.5141V15.7701C265.296 16.1648 265.174 16.5275 264.928 16.8581C264.694 17.1888 264.374 17.4555 263.968 17.6581C263.563 17.8501 263.115 17.9461 262.624 17.9461ZM262.624 16.6021C262.955 16.6021 263.216 16.5221 263.408 16.3621C263.611 16.1915 263.712 15.9781 263.712 15.7221V13.5461C263.712 13.3008 263.611 13.0928 263.408 12.9221C263.206 12.7515 262.944 12.6661 262.624 12.6661C262.294 12.6661 262.022 12.7515 261.808 12.9221C261.606 13.0928 261.504 13.3008 261.504 13.5461V15.7221C261.504 15.9781 261.606 16.1915 261.808 16.3621C262.011 16.5221 262.283 16.6021 262.624 16.6021ZM270.256 22.8261C269.766 22.8261 269.318 22.7301 268.912 22.5381C268.507 22.3355 268.182 22.0688 267.936 21.7381C267.702 21.4075 267.584 21.0448 267.584 20.6501V18.3941C267.584 17.9995 267.702 17.6368 267.936 17.3061C268.182 16.9755 268.507 16.7141 268.912 16.5221C269.318 16.3195 269.766 16.2181 270.256 16.2181C270.758 16.2181 271.211 16.3141 271.616 16.5061C272.022 16.6981 272.342 16.9595 272.576 17.2901C272.811 17.6208 272.928 17.9888 272.928 18.3941V20.6501C272.928 21.0448 272.811 21.4075 272.576 21.7381C272.342 22.0688 272.016 22.3355 271.6 22.5381C271.195 22.7301 270.747 22.8261 270.256 22.8261ZM270.32 21.4501C270.651 21.4501 270.923 21.3701 271.136 21.2101C271.35 21.0395 271.456 20.8315 271.456 20.5861V18.4581C271.456 18.2128 271.344 18.0101 271.12 17.8501C270.907 17.6795 270.64 17.5941 270.32 17.5941C269.99 17.5941 269.712 17.6795 269.488 17.8501C269.275 18.0101 269.168 18.2128 269.168 18.4581V20.5861C269.168 20.8315 269.275 21.0395 269.488 21.2101C269.702 21.3701 269.979 21.4501 270.32 21.4501Z" fill="#1F9EC2"/>
<defs>
<filter id="filter0_b_410_9" x="200.14" y="-27.0669" width="99.1582" height="86.2061" filterUnits="userSpaceOnUse" color-interpolation-filters="sRGB">
<feFlood flood-opacity="0" result="BackgroundImageFix"/>
<feGaussianBlur in="BackgroundImageFix" stdDeviation="13.5335"/>
<feComposite in2="SourceAlpha" operator="in" result="effect1_backgroundBlur_410_9"/>
<feBlend mode="normal" in="SourceGraphic" in2="effect1_backgroundBlur_410_9" result="shape"/>
</filter>
</defs>
</svg>
