<svg width="481" height="333" viewBox="0 0 481 333" fill="none" xmlns="http://www.w3.org/2000/svg">
<ellipse cx="207.773" cy="200.119" rx="207.773" ry="132.722" fill="#1F9EC2"/>
<rect x="0.168945" y="155.097" width="415.377" height="50.4025" fill="#1F9EC2"/>
<ellipse cx="207.857" cy="145.627" rx="207.773" ry="132.722" fill="#15BFEF"/>
<path d="M383.51 62.84H379.864V21.8229H415.412V25.4689H383.51V62.84Z" fill="#1F9EC2"/>
<path d="M381.687 58.283C379.17 58.283 377.13 60.3232 377.13 62.84C377.13 65.3567 379.17 67.397 381.687 67.397C384.204 67.397 386.244 65.3567 386.244 62.84C386.244 60.3232 384.204 58.283 381.687 58.283Z" fill="#1F9EC2"/>
<g filter="url(#filter0_b_406_23)">
<path d="M412.087 41.397V5.99997C412.087 2.68597 414.773 -3.05176e-05 418.087 -3.05176e-05H472.625C475.939 -3.05176e-05 478.625 2.68597 478.625 5.99997V41.397C478.625 44.711 475.939 47.397 472.625 47.397H418.087C414.773 47.397 412.087 44.711 412.087 41.397Z" fill="white" fill-opacity="0.02"/>
<path d="M413.087 41.397V5.99997C413.087 3.23825 415.326 0.999969 418.087 0.999969H472.625C475.387 0.999969 477.625 3.23825 477.625 5.99997V41.397C477.625 44.1587 475.387 46.397 472.625 46.397H418.087C415.326 46.397 413.087 44.1587 413.087 41.397Z" stroke="white" stroke-opacity="0.1" stroke-width="2"/>
</g>
<path d="M422.633 18.829H421.289C420.697 18.829 420.233 18.629 419.897 18.229C419.577 17.829 419.417 17.285 419.417 16.597H424.001C424.353 16.597 424.641 16.709 424.865 16.933C425.089 17.141 425.201 17.405 425.201 17.725V31.573C425.201 32.229 424.977 32.733 424.529 33.085C424.097 33.437 423.465 33.613 422.633 33.613V18.829ZM434.748 33.613C433.548 33.613 432.444 33.381 431.436 32.917C430.444 32.453 429.66 31.821 429.084 31.021C428.508 30.221 428.22 29.341 428.22 28.381V21.613C428.22 20.653 428.508 19.773 429.084 18.973C429.66 18.173 430.444 17.541 431.436 17.077C432.444 16.613 433.548 16.381 434.748 16.381C435.948 16.381 437.044 16.613 438.036 17.077C439.044 17.541 439.836 18.173 440.412 18.973C441.004 19.773 441.3 20.653 441.3 21.613V28.381C441.3 29.341 441.004 30.221 440.412 31.021C439.836 31.821 439.044 32.453 438.036 32.917C437.044 33.381 435.948 33.613 434.748 33.613ZM434.748 31.333C435.932 31.333 436.884 31.053 437.604 30.493C438.34 29.933 438.708 29.205 438.708 28.309V21.685C438.708 20.789 438.34 20.061 437.604 19.501C436.884 18.941 435.932 18.661 434.748 18.661C433.564 18.661 432.604 18.941 431.868 19.501C431.148 20.061 430.788 20.789 430.788 21.685V28.309C430.788 29.205 431.148 29.933 431.868 30.493C432.604 31.053 433.564 31.333 434.748 31.333ZM450.592 33.613C449.392 33.613 448.288 33.381 447.28 32.917C446.288 32.453 445.504 31.821 444.928 31.021C444.352 30.221 444.064 29.341 444.064 28.381V21.613C444.064 20.653 444.352 19.773 444.928 18.973C445.504 18.173 446.288 17.541 447.28 17.077C448.288 16.613 449.392 16.381 450.592 16.381C451.792 16.381 452.888 16.613 453.88 17.077C454.888 17.541 455.68 18.173 456.256 18.973C456.848 19.773 457.144 20.653 457.144 21.613V28.381C457.144 29.341 456.848 30.221 456.256 31.021C455.68 31.821 454.888 32.453 453.88 32.917C452.888 33.381 451.792 33.613 450.592 33.613ZM450.592 31.333C451.776 31.333 452.728 31.053 453.448 30.493C454.184 29.933 454.552 29.205 454.552 28.309V21.685C454.552 20.789 454.184 20.061 453.448 19.501C452.728 18.941 451.776 18.661 450.592 18.661C449.408 18.661 448.448 18.941 447.712 19.501C446.992 20.061 446.632 20.789 446.632 21.685V28.309C446.632 29.205 446.992 29.933 447.712 30.493C448.448 31.053 449.408 31.333 450.592 31.333ZM472.124 16.645C472.268 16.341 472.476 16.109 472.748 15.949C473.036 15.789 473.348 15.709 473.684 15.709C474.148 15.709 474.604 15.861 475.052 16.165L466.508 33.325C466.348 33.629 466.132 33.861 465.86 34.021C465.588 34.181 465.292 34.261 464.972 34.261C464.476 34.261 464.012 34.101 463.58 33.781L472.124 16.645ZM463.58 26.293C462.844 26.293 462.164 26.149 461.54 25.861C460.932 25.557 460.444 25.157 460.076 24.661C459.724 24.165 459.548 23.621 459.548 23.029V19.645C459.548 19.053 459.724 18.509 460.076 18.013C460.444 17.501 460.932 17.101 461.54 16.813C462.164 16.525 462.844 16.381 463.58 16.381C464.316 16.381 464.988 16.525 465.596 16.813C466.22 17.101 466.708 17.493 467.06 17.989C467.412 18.485 467.588 19.037 467.588 19.645V23.029C467.588 23.621 467.404 24.165 467.036 24.661C466.684 25.157 466.204 25.557 465.596 25.861C464.988 26.149 464.316 26.293 463.58 26.293ZM463.58 24.277C464.076 24.277 464.468 24.157 464.756 23.917C465.06 23.661 465.212 23.341 465.212 22.957V19.693C465.212 19.325 465.06 19.013 464.756 18.757C464.452 18.501 464.06 18.373 463.58 18.373C463.084 18.373 462.676 18.501 462.356 18.757C462.052 19.013 461.9 19.325 461.9 19.693V22.957C461.9 23.341 462.052 23.661 462.356 23.917C462.66 24.157 463.068 24.277 463.58 24.277ZM475.028 33.613C474.292 33.613 473.62 33.469 473.012 33.181C472.404 32.877 471.916 32.477 471.548 31.981C471.196 31.485 471.02 30.941 471.02 30.349V26.965C471.02 26.373 471.196 25.829 471.548 25.333C471.916 24.837 472.404 24.445 473.012 24.157C473.62 23.853 474.292 23.701 475.028 23.701C475.78 23.701 476.46 23.845 477.068 24.133C477.676 24.421 478.156 24.813 478.508 25.309C478.86 25.805 479.036 26.357 479.036 26.965V30.349C479.036 30.941 478.86 31.485 478.508 31.981C478.156 32.477 477.668 32.877 477.044 33.181C476.436 33.469 475.764 33.613 475.028 33.613ZM475.124 31.549C475.62 31.549 476.028 31.429 476.348 31.189C476.668 30.933 476.828 30.621 476.828 30.253V27.061C476.828 26.693 476.66 26.389 476.324 26.149C476.004 25.893 475.604 25.765 475.124 25.765C474.628 25.765 474.212 25.893 473.876 26.149C473.556 26.389 473.396 26.693 473.396 27.061V30.253C473.396 30.621 473.556 30.933 473.876 31.189C474.196 31.429 474.612 31.549 475.124 31.549Z" fill="#1F9EC2"/>
<defs>
<filter id="filter0_b_406_23" x="372.087" y="-40" width="146.538" height="127.397" filterUnits="userSpaceOnUse" color-interpolation-filters="sRGB">
<feFlood flood-opacity="0" result="BackgroundImageFix"/>
<feGaussianBlur in="BackgroundImageFix" stdDeviation="20"/>
<feComposite in2="SourceAlpha" operator="in" result="effect1_backgroundBlur_406_23"/>
<feBlend mode="normal" in="SourceGraphic" in2="effect1_backgroundBlur_406_23" result="shape"/>
</filter>
</defs>
</svg>
