<svg width="49" height="49" viewBox="0 0 49 49" fill="none" xmlns="http://www.w3.org/2000/svg">
<rect width="49" height="49" rx="24.5" fill="white"/>
<rect width="49" height="49" rx="24.5" fill="url(#paint0_radial_173_138)"/>
<path fill-rule="evenodd" clip-rule="evenodd" d="M29.9212 35.6962C30.8 35.9603 31.5229 36.2826 32.022 36.6598C32.3411 36.8997 32.5769 37.1299 32.5769 37.4142C32.5769 37.5846 32.4759 37.7364 32.3362 37.8891C32.0979 38.1484 31.7466 38.3818 31.3104 38.5983C29.775 39.3599 27.2938 39.8373 24.5 39.8373C21.7061 39.8373 19.2249 39.3599 17.6895 38.5983C17.2533 38.3818 16.902 38.1484 16.6637 37.8891C16.524 37.7364 16.423 37.5846 16.423 37.4142C16.423 37.1299 16.6588 36.8997 16.9779 36.6598C17.477 36.2826 18.1999 35.9603 19.0787 35.6962C19.5052 35.5678 19.7483 35.1171 19.6199 34.6906C19.4914 34.2633 19.0407 34.021 18.6135 34.1495C17.28 34.5501 16.2461 35.0945 15.6242 35.693C15.0741 36.2236 14.8076 36.8149 14.8076 37.4142C14.8076 38.1718 15.2462 38.9302 16.1435 39.5594C17.7121 40.6595 20.8621 41.4526 24.5 41.4526C28.1378 41.4526 31.2878 40.6595 32.8564 39.5594C33.7537 38.9302 34.1923 38.1718 34.1923 37.4142C34.1923 36.8149 33.9258 36.2236 33.3757 35.693C32.7538 35.0945 31.7199 34.5501 30.3864 34.1495C29.9592 34.021 29.5085 34.2633 29.38 34.6906C29.2516 35.1171 29.4947 35.5678 29.9212 35.6962ZM25.071 11.8045C24.756 11.4887 24.2439 11.4887 23.9289 11.8045L17.4673 18.2661C17.2388 18.4947 17.1685 18.8372 17.2888 19.1368L23.7504 35.2907C23.8724 35.5977 24.1696 35.7988 24.5 35.7988C24.8303 35.7988 25.1275 35.5977 25.2495 35.2907L31.7111 19.1368C31.8314 18.8372 31.7611 18.4947 31.5326 18.2661L25.071 11.8045ZM31.7692 32.568V27.7218C31.7692 27.276 31.4074 26.9141 30.9615 26.9141C30.5157 26.9141 30.1538 27.276 30.1538 27.7218V32.568C30.1538 33.0138 30.5157 33.3757 30.9615 33.3757C31.4074 33.3757 31.7692 33.0138 31.7692 32.568ZM18.8461 32.568V27.7218C18.8461 27.276 18.4842 26.9141 18.0384 26.9141C17.5925 26.9141 17.2307 27.276 17.2307 27.7218V32.568C17.2307 33.0138 17.5925 33.3757 18.0384 33.3757C18.4842 33.3757 18.8461 33.0138 18.8461 32.568ZM29.2936 20.8322L24.928 23.5606C24.6663 23.7245 24.3336 23.7245 24.0719 23.5606L19.7063 20.8322L24.5 32.816L29.2936 20.8322ZM15.6153 30.1449V26.9141C15.6153 26.4683 15.2535 26.1064 14.8076 26.1064C14.3618 26.1064 13.9999 26.4683 13.9999 26.9141V30.1449C13.9999 30.5907 14.3618 30.9526 14.8076 30.9526C15.2535 30.9526 15.6153 30.5907 15.6153 30.1449ZM35 30.1449V26.9141C35 26.4683 34.6381 26.1064 34.1923 26.1064C33.7464 26.1064 33.3846 26.4683 33.3846 26.9141V30.1449C33.3846 30.5907 33.7464 30.9526 34.1923 30.9526C34.6381 30.9526 35 30.5907 35 30.1449ZM35 23.6833V15.6064C35 15.1605 34.6381 14.7987 34.1923 14.7987C33.7464 14.7987 33.3846 15.1605 33.3846 15.6064V23.6833C33.3846 24.1292 33.7464 24.491 34.1923 24.491C34.6381 24.491 35 24.1292 35 23.6833ZM15.6153 23.6833V15.6064C15.6153 15.1605 15.2535 14.7987 14.8076 14.7987C14.3618 14.7987 13.9999 15.1605 13.9999 15.6064V23.6833C13.9999 24.1292 14.3618 24.491 14.8076 24.491C15.2535 24.491 15.6153 24.1292 15.6153 23.6833ZM19.3275 18.6902L23.6923 21.4186V18.8372C23.6923 18.3913 24.0541 18.0295 24.5 18.0295C24.9458 18.0295 25.3076 18.3913 25.3076 18.8372V21.4186L29.6724 18.6902L24.5 13.5177L19.3275 18.6902ZM30.3864 14.7648C31.7199 14.3633 32.7538 13.8197 33.3757 13.2204C33.9258 12.6906 34.1923 12.0994 34.1923 11.4992C34.1923 10.7424 33.7537 9.98319 32.8564 9.35399C31.2878 8.25472 28.1378 7.46075 24.5 7.46075C20.8621 7.46075 17.7121 8.25472 16.1435 9.35399C15.2462 9.98319 14.8076 10.7424 14.8076 11.4992C14.8076 12.0994 15.0741 12.6906 15.6242 13.2204C16.2461 13.8197 17.28 14.3633 18.6135 14.7648C19.0407 14.8932 19.4914 14.6501 19.6199 14.2236C19.7483 13.7963 19.5052 13.3456 19.0787 13.2172C18.1999 12.9539 17.477 12.6308 16.9779 12.2544C16.6588 12.0137 16.423 11.7835 16.423 11.4992C16.423 11.3296 16.524 11.1778 16.6637 11.0243C16.902 10.765 17.2533 10.5316 17.6895 10.3152C19.2249 9.5543 21.7061 9.07615 24.5 9.07615C27.2938 9.07615 29.775 9.5543 31.3104 10.3152C31.7466 10.5316 32.0979 10.765 32.3362 11.0243C32.4759 11.1778 32.5769 11.3296 32.5769 11.4992C32.5769 11.7835 32.3411 12.0137 32.022 12.2544C31.5229 12.6308 30.8 12.9539 29.9212 13.2172C29.4947 13.3456 29.2516 13.7963 29.38 14.2236C29.5085 14.6501 29.9592 14.8932 30.3864 14.7648Z" fill="white"/>
<defs>
<radialGradient id="paint0_radial_173_138" cx="0" cy="0" r="1" gradientUnits="userSpaceOnUse" gradientTransform="translate(45.8465 3.92) rotate(129.464) scale(58.3922 58.8663)">
<stop stop-color="#00E0F7"/>
<stop offset="0.721277" stop-color="#8B00BD"/>
</radialGradient>
</defs>
</svg>
