<svg width="44" height="44" viewBox="0 0 44 44" fill="none" xmlns="http://www.w3.org/2000/svg">
<rect width="44" height="44" rx="4" fill="white"/>
<path d="M18.2 3H15.6667V5.53333H18.2V3Z" fill="black"/>
<path d="M23.2667 3H20.7333V5.53333H23.2667V3Z" fill="black"/>
<path d="M28.3333 3H25.8V5.53333H28.3333V3Z" fill="black"/>
<path d="M18.2 5.53333H15.6667V8.06667H18.2V5.53333Z" fill="black"/>
<path d="M9.3335 6.79984H6.80017V9.33317H9.3335V6.79984Z" fill="black"/>
<path d="M25.8 5.53333H23.2667V8.06667H25.8V5.53333Z" fill="black"/>
<path d="M28.3333 5.53333H25.8V8.06667H28.3333V5.53333Z" fill="black"/>
<path d="M18.2 8.06667H15.6667V10.6H18.2V8.06667Z" fill="black"/>
<path d="M20.7333 8.06667H18.2V10.6H20.7333V8.06667Z" fill="black"/>
<path d="M23.2667 8.06667H20.7333V10.6H23.2667V8.06667Z" fill="black"/>
<path d="M28.3333 8.06667H25.8V10.6H28.3333V8.06667Z" fill="black"/>
<path d="M10.6 3H8.06667H5.53333H3V5.53333V8.06667V10.6V13.1333H5.53333H8.06667H10.6H13.1333V10.6V8.06667V5.53333V3H10.6ZM10.6 8.06667V10.6H8.06667H5.53333V8.06667V5.53333H8.06667H10.6V8.06667Z" fill="black"/>
<path d="M23.2667 10.6H20.7333V13.1333H23.2667V10.6Z" fill="black"/>
<path d="M25.8 10.6H23.2667V13.1333H25.8V10.6Z" fill="black"/>
<path d="M38.4667 3H35.9334H33.4H30.8667V5.53333V8.06667V10.6V13.1333H33.4H35.9334H38.4667H41V10.6V8.06667V5.53333V3H38.4667ZM38.4667 8.06667V10.6H35.9334H33.4V8.06667V5.53333H35.9334H38.4667V8.06667Z" fill="black"/>
<path d="M37.1999 6.79984H34.6666V9.33317H37.1999V6.79984Z" fill="black"/>
<path d="M18.2 13.1333H15.6667V15.6667H18.2V13.1333Z" fill="black"/>
<path d="M28.3333 13.1333H25.8V15.6667H28.3333V13.1333Z" fill="black"/>
<path d="M5.53333 15.6667H3V18.2H5.53333V15.6667Z" fill="black"/>
<path d="M8.06666 15.6667H5.53333V18.2H8.06666V15.6667Z" fill="black"/>
<path d="M10.6 15.6667H8.06665V18.2H10.6V15.6667Z" fill="black"/>
<path d="M15.6667 15.6667H13.1334V18.2H15.6667V15.6667Z" fill="black"/>
<path d="M23.2667 15.6667H20.7333V18.2H23.2667V15.6667Z" fill="black"/>
<path d="M25.8 15.6667H23.2667V18.2H25.8V15.6667Z" fill="black"/>
<path d="M30.8666 15.6667H28.3333V18.2H30.8666V15.6667Z" fill="black"/>
<path d="M33.4 15.6667H30.8667V18.2H33.4V15.6667Z" fill="black"/>
<path d="M38.4667 15.6667H35.9333V18.2H38.4667V15.6667Z" fill="black"/>
<path d="M41 15.6667H38.4667V18.2H41V15.6667Z" fill="black"/>
<path d="M8.06666 18.2H5.53333V20.7333H8.06666V18.2Z" fill="black"/>
<path d="M13.1333 18.2H10.6V20.7333H13.1333V18.2Z" fill="black"/>
<path d="M15.6667 18.2H13.1334V20.7333H15.6667V18.2Z" fill="black"/>
<path d="M18.2 18.2H15.6667V20.7333H18.2V18.2Z" fill="black"/>
<path d="M23.2667 18.2H20.7333V20.7333H23.2667V18.2Z" fill="black"/>
<path d="M28.3333 18.2H25.8V20.7333H28.3333V18.2Z" fill="black"/>
<path d="M35.9334 18.2H33.4V20.7333H35.9334V18.2Z" fill="black"/>
<path d="M35.9717 13.2564H33.4384V15.7897H35.9717V13.2564Z" fill="black"/>
<path d="M20.7525 15.5724H18.2192V18.1057H20.7525V15.5724Z" fill="black"/>
<path d="M18.1057 23.182H15.5724V25.7153H18.1057V23.182Z" fill="black"/>
<path d="M15.4589 30.7916H12.9255V33.3249H15.4589V30.7916Z" fill="black"/>
<path d="M5.53333 28.1447H3V30.6781H5.53333V28.1447Z" fill="black"/>
<path d="M15.7897 20.5352H13.2564V23.0685H15.7897V20.5352Z" fill="black"/>
<path d="M5.53333 20.7333H3V23.2667H5.53333V20.7333Z" fill="black"/>
<path d="M8.06666 20.7333H5.53333V23.2667H8.06666V20.7333Z" fill="black"/>
<path d="M10.6 20.7333H8.06665V23.2667H10.6V20.7333Z" fill="black"/>
<path d="M18.2 20.7333H15.6667V23.2667H18.2V20.7333Z" fill="black"/>
<path d="M20.7333 20.7333H18.2V23.2667H20.7333V20.7333Z" fill="black"/>
<path d="M25.8 20.7333H23.2667V23.2667H25.8V20.7333Z" fill="black"/>
<path d="M28.3333 20.7333H25.8V23.2667H28.3333V20.7333Z" fill="black"/>
<path d="M30.8666 20.7333H28.3333V23.2667H30.8666V20.7333Z" fill="black"/>
<path d="M41 20.7333H38.4667V23.2667H41V20.7333Z" fill="black"/>
<path d="M5.53333 23.2667H3V25.8H5.53333V23.2667Z" fill="black"/>
<path d="M10.6 23.2667H8.06665V25.8H10.6V23.2667Z" fill="black"/>
<path d="M13.1333 23.2667H10.6V25.8H13.1333V23.2667Z" fill="black"/>
<path d="M23.2667 23.2667H20.7333V25.8H23.2667V23.2667Z" fill="black"/>
<path d="M25.8 23.2667H23.2667V25.8H25.8V23.2667Z" fill="black"/>
<path d="M30.8666 23.2667H28.3333V25.8H30.8666V23.2667Z" fill="black"/>
<path d="M33.4 23.2667H30.8667V25.8H33.4V23.2667Z" fill="black"/>
<path d="M35.9334 23.2667H33.4V25.8H35.9334V23.2667Z" fill="black"/>
<path d="M38.4667 23.2667H35.9333V25.8H38.4667V23.2667Z" fill="black"/>
<path d="M41 23.2667H38.4667V25.8H41V23.2667Z" fill="black"/>
<path d="M8.06666 25.7997H5.53333V28.333H8.06666V25.7997Z" fill="black"/>
<path d="M10.6 25.7997H8.06665V28.333H10.6V25.7997Z" fill="black"/>
<path d="M15.6667 25.7997H13.1334V28.333H15.6667V25.7997Z" fill="black"/>
<path d="M23.2667 25.7997H20.7333V28.333H23.2667V25.7997Z" fill="black"/>
<path d="M28.3333 25.7997H25.8V28.333H28.3333V25.7997Z" fill="black"/>
<path d="M30.8666 25.7997H28.3333V28.333H30.8666V25.7997Z" fill="black"/>
<path d="M35.9334 25.7997H33.4V28.333H35.9334V25.7997Z" fill="black"/>
<path d="M41 25.7997H38.4667V28.333H41V25.7997Z" fill="black"/>
<path d="M18.2 28.333H15.6667V30.8663H18.2V28.333Z" fill="black"/>
<path d="M20.7333 28.333H18.2V30.8663H20.7333V28.333Z" fill="black"/>
<path d="M23.2667 28.333H20.7333V30.8663H23.2667V28.333Z" fill="black"/>
<path d="M30.8666 28.333H28.3333V30.8663H30.8666V28.333Z" fill="black"/>
<path d="M33.4 28.333H30.8667V30.8663H33.4V28.333Z" fill="black"/>
<path d="M38.4667 28.333H35.9333V30.8663H38.4667V28.333Z" fill="black"/>
<path d="M41 28.333H38.4667V30.8663H41V28.333Z" fill="black"/>
<path d="M18.2 30.8663H15.6667V33.3997H18.2V30.8663Z" fill="black"/>
<path d="M20.7333 30.8663H18.2V33.3997H20.7333V30.8663Z" fill="black"/>
<path d="M23.2667 30.8663H20.7333V33.3997H23.2667V30.8663Z" fill="black"/>
<path d="M28.3333 30.8663H25.8V33.3997H28.3333V30.8663Z" fill="black"/>
<path d="M30.8666 30.8663H28.3333V33.3997H30.8666V30.8663Z" fill="black"/>
<path d="M35.9334 30.8663H33.4V33.3997H35.9334V30.8663Z" fill="black"/>
<path d="M23.2667 33.4H20.7333V35.9333H23.2667V33.4Z" fill="black"/>
<path d="M25.8 33.4H23.2667V35.9333H25.8V33.4Z" fill="black"/>
<path d="M30.8666 33.4H28.3333V35.9333H30.8666V33.4Z" fill="black"/>
<path d="M33.4 33.4H30.8667V35.9333H33.4V33.4Z" fill="black"/>
<path d="M35.9334 33.4H33.4V35.9333H35.9334V33.4Z" fill="black"/>
<path d="M41 33.4H38.4667V35.9333H41V33.4Z" fill="black"/>
<path d="M18.2 35.9333H15.6667V38.4667H18.2V35.9333Z" fill="black"/>
<path d="M20.7333 35.9333H18.2V38.4667H20.7333V35.9333Z" fill="black"/>
<path d="M25.8 35.9333H23.2667V38.4667H25.8V35.9333Z" fill="black"/>
<path d="M28.3333 35.9333H25.8V38.4667H28.3333V35.9333Z" fill="black"/>
<path d="M33.4 35.9333H30.8667V38.4667H33.4V35.9333Z" fill="black"/>
<path d="M38.4667 35.9333H35.9333V38.4667H38.4667V35.9333Z" fill="black"/>
<path d="M9.3335 34.6665H6.80017V37.1998H9.3335V34.6665Z" fill="black"/>
<path d="M10.6 30.8663H8.06667H5.53333H3V33.3997V35.933V38.4663V40.9997H5.53333H8.06667H10.6H13.1333V38.4663V35.933V33.3997V30.8663H10.6ZM10.6 35.933V38.4663H8.06667H5.53333V35.933V33.3997H8.06667H10.6V35.933Z" fill="black"/>
<path d="M18.2 38.4667H15.6667V41H18.2V38.4667Z" fill="black"/>
<path d="M23.2667 38.4667H20.7333V41H23.2667V38.4667Z" fill="black"/>
<path d="M28.3333 38.4667H25.8V41H28.3333V38.4667Z" fill="black"/>
<path d="M35.9334 38.4667H33.4V41H35.9334V38.4667Z" fill="black"/>
<path d="M38.4667 38.4667H35.9333V41H38.4667V38.4667Z" fill="black"/>
<path d="M41 38.4667H38.4667V41H41V38.4667Z" fill="black"/>
</svg>
