<svg width="49" height="49" viewBox="0 0 49 49" fill="none" xmlns="http://www.w3.org/2000/svg">
<rect width="49" height="49" rx="24.5" fill="white"/>
<rect width="49" height="49" rx="24.5" fill="url(#paint0_radial_173_128)"/>
<path d="M27.0416 14.4658C26.9112 14.4656 26.7855 14.4145 26.6879 14.3219C26.5903 14.2294 26.5277 14.1018 26.5118 13.9633C26.4959 13.8247 26.5279 13.6847 26.6016 13.5696C26.6754 13.4545 26.7858 13.3723 26.9123 13.3383L31.1866 12.1937C31.3237 12.1581 31.4683 12.1819 31.5891 12.26C31.7098 12.3381 31.7968 12.4642 31.831 12.6108C31.8653 12.7573 31.8441 12.9125 31.772 13.0423C31.6999 13.1722 31.5829 13.2662 31.4463 13.304L27.1719 14.4486C27.1293 14.4602 27.0855 14.466 27.0416 14.4658Z" fill="white"/>
<path d="M27.0416 16.754C26.9112 16.7538 26.7855 16.7027 26.6879 16.6101C26.5903 16.5176 26.5277 16.39 26.5118 16.2515C26.4959 16.1129 26.5279 15.9729 26.6016 15.8578C26.6754 15.7427 26.7858 15.6605 26.9123 15.6265L31.1866 14.4819C31.3237 14.4463 31.4683 14.4701 31.5891 14.5482C31.7098 14.6264 31.7968 14.7524 31.831 14.899C31.8653 15.0455 31.8441 15.2007 31.772 15.3305C31.6999 15.4604 31.5829 15.5545 31.4463 15.5922L27.1719 16.7368C27.1293 16.7484 27.0855 16.7542 27.0416 16.754Z" fill="white"/>
<path d="M36.4235 15.1621C36.4246 13.8634 36.0696 12.5888 35.3963 11.4742C34.7231 10.3596 33.7568 9.44682 32.6006 8.83329C31.4444 8.21976 30.1417 7.92847 28.8314 7.99049C27.5211 8.05251 26.2524 8.46551 25.1606 9.18545C24.0688 9.90538 23.1949 10.9052 22.6321 12.0783C22.0693 13.2514 21.8388 14.5538 21.965 15.8465C22.0913 17.1392 22.5696 18.3736 23.349 19.4183C24.1284 20.4629 25.1796 21.2785 26.3905 21.778V22.3359H25.2757V25.6468H26.3905V26.1986C26.3905 26.9304 26.6841 27.6322 27.2068 28.1496C27.7294 28.6671 28.4383 28.9578 29.1774 28.9578C29.9166 28.9578 30.6255 28.6671 31.1481 28.1496C31.6708 27.6322 31.9644 26.9304 31.9644 26.1986V25.6468H33.0792V22.3359H31.9644V21.778C33.283 21.2324 34.4096 20.3135 35.2029 19.1366C35.9961 17.9596 36.4208 16.577 36.4235 15.1621ZM30.8496 26.1986C30.8496 26.6377 30.6734 27.0588 30.3598 27.3692C30.0462 27.6797 29.6209 27.8541 29.1774 27.8541C28.734 27.8541 28.3086 27.6797 27.995 27.3692C27.6814 27.0588 27.5053 26.6377 27.5053 26.1986V25.6468H30.8496V26.1986ZM31.9644 24.5432H26.3905V23.4395H31.9644V24.5432ZM29.7348 22.3359V18.4731C29.7313 18.4339 29.7234 18.3952 29.7114 18.3577L31.5424 17.9047C31.6849 17.8683 31.8071 17.7776 31.8823 17.6524C31.9574 17.5272 31.9796 17.3776 31.9438 17.2363C31.9081 17.095 31.8173 16.9734 31.6914 16.8981C31.5654 16.8227 31.4145 16.7998 31.2716 16.8341L26.8124 17.9378C26.6805 17.9705 26.5652 18.0499 26.4883 18.1609C26.4114 18.2719 26.3781 18.407 26.3947 18.5406C26.4114 18.6743 26.4768 18.7973 26.5787 18.8864C26.6806 18.9756 26.8119 19.0249 26.9479 19.0249C26.9937 19.0251 27.0394 19.0195 27.0839 19.0083L28.62 18.6281V22.3359H27.5053V21.0115L27.134 20.8812C25.7704 20.404 24.621 19.4649 23.8891 18.2298C23.1572 16.9947 22.8899 15.5432 23.1344 14.1319C23.379 12.7206 24.1196 11.4403 25.2254 10.5173C26.3312 9.59431 27.7311 9.08809 29.1774 9.08809C30.6238 9.08809 32.0236 9.59431 33.1295 10.5173C34.2353 11.4403 34.9759 12.7206 35.2205 14.1319C35.465 15.5432 35.1977 16.9947 34.4658 18.2298C33.7339 19.4649 32.5845 20.404 31.2208 20.8812L30.8496 21.0115V22.3359H29.7348Z" fill="white"/>
<path d="M39.9918 28.934C39.693 28.7467 39.3526 28.6374 39.0013 28.616C38.65 28.5946 38.2989 28.6617 37.9799 28.8113L29.3269 30.9819L22.763 27.6805C21.9604 27.419 21.1058 27.3631 20.2764 27.5177C19.447 27.6723 18.6689 28.0326 18.0126 28.566L16.7311 29.8904H14.172V28.7652H8.58334V37.7671H14.172V36.6419H16.8546L23.7287 39.608C24.354 39.8787 25.0276 40.0181 25.7082 40.0176H27.852C28.8843 40.0194 29.8918 39.6996 30.7364 39.1022L40.0902 32.5106C40.3792 32.3076 40.6136 32.0354 40.7723 31.7186C40.931 31.4018 41.0089 31.0502 40.9992 30.6956C40.9894 30.3409 40.8923 29.9942 40.7164 29.6867C40.5406 29.3793 40.2916 29.1206 39.9918 28.934ZM9.70108 36.6419V29.8904H13.0543V36.6419H9.70108ZM39.4497 31.5884L30.0953 38.1801C29.4386 38.645 28.6549 38.8939 27.852 38.8924H25.7082C25.1784 38.8931 24.6541 38.7847 24.1674 38.5739L17.0782 35.5166H14.172V31.0157H17.2017L18.8006 29.3655C19.2944 28.9905 19.868 28.7359 20.4762 28.622C21.0843 28.5081 21.7105 28.5378 22.3053 28.709L29.0726 32.115C29.2394 32.203 29.3836 32.3287 29.494 32.4823C29.6043 32.6358 29.6778 32.8131 29.7086 33C29.7518 33.1554 29.7567 33.319 29.7228 33.4767C29.6889 33.6343 29.6173 33.7813 29.5141 33.9047C29.3935 34.0273 29.2412 34.1133 29.0744 34.1531C28.9077 34.1929 28.7332 34.1848 28.5708 34.1298L22.7317 32.1696C22.662 32.1463 22.5884 32.137 22.5151 32.1423C22.4418 32.1476 22.3702 32.1673 22.3045 32.2005C22.1718 32.2673 22.071 32.3846 22.0242 32.5263C21.9773 32.6681 21.9883 32.8228 22.0548 32.9563C22.1212 33.0899 22.2377 33.1914 22.3785 33.2386L28.2164 35.1965C28.426 35.2669 28.6455 35.303 28.8664 35.3034C29.1337 35.3033 29.3983 35.2499 29.6449 35.1464C29.8916 35.0429 30.1156 34.8913 30.3038 34.7003C30.5387 34.4457 30.7072 34.1365 30.7943 33.8003C30.8814 33.4642 30.8843 33.1115 30.8029 32.7739C30.7351 32.4497 30.6055 32.1419 30.4212 31.8675L38.3051 29.8904L38.4169 29.8483C38.5708 29.7692 38.7422 29.7314 38.9148 29.7385C39.0874 29.7455 39.2552 29.7971 39.4022 29.8884C39.5492 29.9797 39.6704 30.1076 39.7541 30.2597C39.8378 30.4118 39.8811 30.583 39.88 30.7569C39.88 30.9201 39.8408 31.0809 39.7659 31.2256C39.691 31.3704 39.5825 31.4948 39.4497 31.5884Z" fill="white"/>
<defs>
<radialGradient id="paint0_radial_173_128" cx="0" cy="0" r="1" gradientUnits="userSpaceOnUse" gradientTransform="translate(45.8465 3.92) rotate(129.464) scale(58.3922 58.8663)">
<stop stop-color="#00E0F7"/>
<stop offset="0.721277" stop-color="#8B00BD"/>
</radialGradient>
</defs>
</svg>
