<svg width="40" height="41" viewBox="0 0 40 41" fill="none" xmlns="http://www.w3.org/2000/svg">
<rect y="0.376953" width="40" height="40" rx="20" fill="white"/>
<rect y="0.376953" width="40" height="40" rx="20" fill="url(#paint0_radial_173_271)"/>
<g clip-path="url(#clip0_173_271)">
<path d="M20 11.3578C22.9391 11.3578 23.2871 11.3707 24.443 11.4223C25.5172 11.4695 26.0973 11.65 26.484 11.8004C26.9953 11.998 27.3648 12.2387 27.7473 12.6211C28.134 13.0078 28.3703 13.373 28.568 13.8844C28.7184 14.2711 28.8988 14.8555 28.9461 15.9254C28.9977 17.0855 29.0105 17.4336 29.0105 20.3684C29.0105 23.3074 28.9977 23.6555 28.9461 24.8113C28.8988 25.8855 28.7184 26.4656 28.568 26.8523C28.3703 27.3637 28.1297 27.7332 27.7473 28.1156C27.3605 28.5023 26.9953 28.7387 26.484 28.9363C26.0973 29.0867 25.5129 29.2672 24.443 29.3145C23.2828 29.366 22.9348 29.3789 20 29.3789C17.0609 29.3789 16.7129 29.366 15.557 29.3145C14.4828 29.2672 13.9027 29.0867 13.516 28.9363C13.0047 28.7387 12.6352 28.498 12.2527 28.1156C11.866 27.7289 11.6297 27.3637 11.432 26.8523C11.2816 26.4656 11.1012 25.8813 11.0539 24.8113C11.0023 23.6512 10.9895 23.3031 10.9895 20.3684C10.9895 17.4293 11.0023 17.0812 11.0539 15.9254C11.1012 14.8512 11.2816 14.2711 11.432 13.8844C11.6297 13.373 11.8703 13.0035 12.2527 12.6211C12.6395 12.2344 13.0047 11.998 13.516 11.8004C13.9027 11.65 14.4871 11.4695 15.557 11.4223C16.7129 11.3707 17.0609 11.3578 20 11.3578ZM20 9.37695C17.0137 9.37695 16.6398 9.38984 15.4668 9.44141C14.298 9.49297 13.4945 9.68203 12.7984 9.95273C12.0723 10.2363 11.4578 10.6102 10.8477 11.2246C10.2332 11.8348 9.85938 12.4492 9.57578 13.1711C9.30508 13.8715 9.11602 14.6707 9.06445 15.8395C9.01289 17.0168 9 17.3906 9 20.377C9 23.3633 9.01289 23.7371 9.06445 24.9102C9.11602 26.0789 9.30508 26.8824 9.57578 27.5785C9.85938 28.3047 10.2332 28.9191 10.8477 29.5293C11.4578 30.1395 12.0723 30.5176 12.7941 30.7969C13.4945 31.0676 14.2938 31.2566 15.4625 31.3082C16.6355 31.3598 17.0094 31.3727 19.9957 31.3727C22.982 31.3727 23.3559 31.3598 24.5289 31.3082C25.6977 31.2566 26.5012 31.0676 27.1973 30.7969C27.9191 30.5176 28.5336 30.1395 29.1438 29.5293C29.7539 28.9191 30.132 28.3047 30.4113 27.5828C30.682 26.8824 30.8711 26.0832 30.9227 24.9145C30.9742 23.7414 30.9871 23.3676 30.9871 20.3813C30.9871 17.3949 30.9742 17.0211 30.9227 15.848C30.8711 14.6793 30.682 13.8758 30.4113 13.1797C30.1406 12.4492 29.7668 11.8348 29.1523 11.2246C28.5422 10.6145 27.9277 10.2363 27.2059 9.95703C26.5055 9.68633 25.7063 9.49727 24.5375 9.4457C23.3602 9.38984 22.9863 9.37695 20 9.37695Z" fill="white"/>
<path d="M20 14.7266C16.8805 14.7266 14.3496 17.2574 14.3496 20.377C14.3496 23.4965 16.8805 26.0273 20 26.0273C23.1195 26.0273 25.6504 23.4965 25.6504 20.377C25.6504 17.2574 23.1195 14.7266 20 14.7266ZM20 24.0422C17.9762 24.0422 16.3348 22.4008 16.3348 20.377C16.3348 18.3531 17.9762 16.7117 20 16.7117C22.0238 16.7117 23.6652 18.3531 23.6652 20.377C23.6652 22.4008 22.0238 24.0422 20 24.0422Z" fill="white"/>
<path d="M27.193 14.5031C27.193 15.2336 26.6 15.8222 25.8738 15.8222C25.1434 15.8222 24.5547 15.2293 24.5547 14.5031C24.5547 13.7726 25.1477 13.184 25.8738 13.184C26.6 13.184 27.193 13.7769 27.193 14.5031Z" fill="white"/>
</g>
<defs>
<radialGradient id="paint0_radial_173_271" cx="0" cy="0" r="1" gradientUnits="userSpaceOnUse" gradientTransform="translate(37.4257 3.57695) rotate(129.464) scale(47.6671 48.0541)">
<stop stop-color="#00E0F7" stop-opacity="0.8"/>
<stop offset="0.88125" stop-color="#8B00BD"/>
</radialGradient>
<clipPath id="clip0_173_271">
<rect width="22" height="22" fill="white" transform="translate(9 9.37695)"/>
</clipPath>
</defs>
</svg>
