<svg width="49" height="49" viewBox="0 0 49 49" fill="none" xmlns="http://www.w3.org/2000/svg">
<rect width="49" height="49" rx="24.5" fill="white"/>
<rect width="49" height="49" rx="24.5" fill="url(#paint0_radial_173_120)"/>
<path d="M35.7112 27.539C36.4006 23.6327 34.9644 19.6115 31.9198 17.0264C31.69 16.7966 31.3453 16.8541 31.1155 17.0839C30.8858 17.3136 30.9432 17.6583 31.173 17.8881C33.8155 20.1285 35.1368 23.6327 34.6198 27.0795C31.5751 26.1603 28.4156 27.9412 27.4964 30.9858C26.5773 34.0305 28.3581 37.19 31.4028 38.1091C34.4474 39.0283 37.607 37.2474 38.5261 34.2028C39.2729 31.6177 38.124 28.8029 35.7112 27.539ZM30.139 36.156C30.139 36.0985 30.139 36.0411 30.139 36.0411C30.139 34.4326 31.4028 33.1688 33.0113 33.1688C34.6198 33.1688 35.8836 34.4326 35.8836 36.0411V36.156C34.2176 37.5347 31.8049 37.5347 30.139 36.156ZM31.8623 30.8709C31.8623 30.239 32.3794 29.722 33.0113 29.722C33.6432 29.722 34.1602 30.239 34.1602 30.8709C34.1602 31.5028 33.6432 32.0198 33.0113 32.0198C32.3794 32.0198 31.8623 31.5028 31.8623 30.8709ZM36.9176 35.007C36.6304 33.8581 35.8261 32.8815 34.7347 32.3645C35.5963 31.4454 35.5389 29.9518 34.5623 29.0901C33.6432 28.2284 32.1496 28.2858 31.2879 29.2624C30.4836 30.1241 30.4836 31.5028 31.2879 32.3645C30.1964 32.8815 29.3922 33.8581 29.1049 35.007C27.7262 32.8815 28.4156 30.0092 30.5411 28.688C32.6666 27.3093 35.5389 27.9986 36.8602 30.1241C37.8367 31.6177 37.8367 33.5134 36.9176 35.007Z" fill="white"/>
<path d="M26.4624 35.8113C25.773 35.9836 25.0837 36.041 24.3943 36.041C23.188 36.041 21.9242 35.8113 20.7752 35.3517C22.3263 32.5943 21.2922 29.0901 18.5348 27.5965C15.7774 26.0454 12.2732 27.0795 10.7796 29.8369C9.28601 32.5943 10.2626 36.0985 13.02 37.5921C15.1455 38.741 17.7306 38.4538 19.5689 36.8453C19.7412 36.673 19.971 36.5006 20.0859 36.2708C21.4646 36.8453 22.9007 37.1325 24.3369 37.1325C25.0837 37.1325 25.8879 37.0751 26.6347 36.9027C26.922 36.8453 27.1518 36.5581 27.0943 36.2134C27.0369 35.8687 26.7496 35.7538 26.4624 35.8113ZM11.1817 32.5943C11.1817 30.0667 13.2498 27.9986 15.7774 27.9986C18.3051 27.9986 20.3731 30.0667 20.3731 32.5943C20.3731 33.456 20.1433 34.3177 19.6838 35.0645C19.3965 33.9155 18.5923 32.939 17.5008 32.4219C18.3625 31.5028 18.3051 30.0092 17.3285 29.1475C16.4093 28.2858 14.9157 28.3433 14.054 29.3199C13.2498 30.1815 13.2498 31.5602 14.054 32.4219C12.9626 32.939 12.1583 33.9155 11.8711 35.0645C11.4115 34.3177 11.1817 33.456 11.1817 32.5943ZM14.6285 30.8709C14.6285 30.239 15.1455 29.722 15.7774 29.722C16.4093 29.722 16.9263 30.239 16.9263 30.8709C16.9263 31.5028 16.4093 32.0198 15.7774 32.0198C15.1455 32.0198 14.6285 31.5028 14.6285 30.8709ZM12.9051 36.1559C12.9051 36.0985 12.9051 36.041 12.9051 36.041C12.9051 34.4326 14.1689 33.1687 15.7774 33.1687C17.3859 33.1687 18.6497 34.4326 18.6497 36.041V36.1559C16.9838 37.5346 14.5711 37.5346 12.9051 36.1559Z" fill="white"/>
<path d="M13.4796 26.0455C13.8243 26.0455 14.054 25.8157 14.054 25.471C14.1115 21.9668 15.9498 18.8073 18.8795 16.9116C19.7987 19.9562 22.9582 21.6796 26.0028 20.7604C29.0475 19.8413 30.7709 16.6818 29.8517 13.6371C28.9326 10.5925 25.7731 8.8691 22.7284 9.78824C20.3157 10.5925 18.6497 12.8329 18.6497 15.3605V15.7626C15.1455 17.7732 12.9626 21.4498 12.9051 25.471C12.9051 25.8157 13.1349 26.0455 13.4796 26.0455ZM21.522 18.9222C21.522 18.8647 21.522 18.8073 21.522 18.8073C21.522 17.1988 22.7859 15.935 24.3943 15.935C26.0028 15.935 27.2666 17.1988 27.2666 18.8073V18.9222C25.6007 20.3009 23.188 20.3009 21.522 18.9222ZM23.2454 13.6371C23.2454 13.0052 23.7624 12.4882 24.3943 12.4882C25.0262 12.4882 25.5433 13.0052 25.5433 13.6371C25.5433 14.269 25.0262 14.786 24.3943 14.786C23.7624 14.786 23.2454 14.269 23.2454 13.6371ZM24.3943 10.7648C26.922 10.7648 28.99 12.8329 28.99 15.3605C28.99 16.2222 28.7602 17.0839 28.3007 17.8307C28.0134 16.6818 27.2092 15.7052 26.1177 15.1882C26.9794 14.269 26.922 12.7754 25.9454 11.9137C24.9688 11.0521 23.5327 11.1095 22.671 12.0861C21.8667 12.9478 21.8667 14.3265 22.671 15.1882C21.5795 15.7052 20.7752 16.6818 20.488 17.8307C19.1093 15.7052 19.7987 12.8329 21.9242 11.5116C22.671 10.9946 23.5327 10.7648 24.3943 10.7648Z" fill="white"/>
<defs>
<radialGradient id="paint0_radial_173_120" cx="0" cy="0" r="1" gradientUnits="userSpaceOnUse" gradientTransform="translate(45.8465 3.92) rotate(129.464) scale(58.3922 58.8663)">
<stop stop-color="#00E0F7"/>
<stop offset="0.721277" stop-color="#8B00BD"/>
</radialGradient>
</defs>
</svg>
